<?xml version="1.0" encoding="utf-8"?>
<!-- Generator: Adobe Illustrator 23.0.0, SVG Export Plug-In . SVG Version: 6.00 Build 0)  -->
<svg version="1.1" id="Layer_1" xmlns="http://www.w3.org/2000/svg" xmlns:xlink="http://www.w3.org/1999/xlink" x="0px" y="0px"
	 viewBox="0 0 500 500" style="enable-background:new 0 0 500 500;" xml:space="preserve">
<style type="text/css">
	.st0{fill:#5A5B6C;stroke:#292B3C;stroke-miterlimit:10;}
	.st1{fill:#A0A1B7;stroke:#4B4E6D;stroke-miterlimit:10;}
	.st2{fill:#4B4E6D;}
	.st3{font-family:'Montserrat-MediumItalic';}
	.st4{font-size:72.2921px;}
	.st5{opacity:0.4;}
</style>
<g>
	<g>
		<path class="st0" d="M294.54,294.3h-89.08c-3.81,0-6.9-3.09-6.9-6.9v-89.08c0-3.81,3.09-6.9,6.9-6.9h89.08
			c3.81,0,6.9,3.09,6.9,6.9v89.08C301.44,291.21,298.35,294.3,294.54,294.3z"/>
		<path class="st1" d="M294.54,290.3h-89.08c-3.81,0-6.9-3.09-6.9-6.9v-89.08c0-3.81,3.09-6.9,6.9-6.9h89.08
			c3.81,0,6.9,3.09,6.9,6.9v89.08C301.44,287.21,298.35,290.3,294.54,290.3z"/>
	</g>
	<g>
		<text transform="matrix(1 0 0 1 219.1801 262.2247)" class="st2 st3 st4">V</text>
		<g class="st5">
			<path class="st2" d="M281.74,211.62l-32.89,50.6h-1.45c0.34-0.65,0.67-1.3,1.01-1.95L280,211.62H281.74z"/>
		</g>
	</g>
</g>
</svg>
