<svg id="Layer_1" data-name="Layer 1" xmlns="http://www.w3.org/2000/svg" viewBox="0 0 103.88 107.88"><defs><style>.cls-1{fill:#5a5b6c;stroke:#292b3c;}.cls-1,.cls-2{stroke-miterlimit:10;}.cls-2{fill:#a0a1b7;stroke:#4b4e6d;}.cls-3{isolation:isolate;}.cls-4{fill:#4b4e6d;}.cls-5{opacity:0.4;}</style></defs><title>logo</title><path class="cls-1" d="M294.54,294.3H205.46a6.9,6.9,0,0,1-6.9-6.9V198.32a6.9,6.9,0,0,1,6.9-6.9h89.08a6.9,6.9,0,0,1,6.9,6.9V287.4A6.9,6.9,0,0,1,294.54,294.3Z" transform="translate(-198.06 -186.92)"/><path class="cls-2" d="M294.54,290.3H205.46a6.9,6.9,0,0,1-6.9-6.9V194.32a6.9,6.9,0,0,1,6.9-6.9h89.08a6.9,6.9,0,0,1,6.9,6.9V283.4A6.9,6.9,0,0,1,294.54,290.3Z" transform="translate(-198.06 -186.92)"/><g class="cls-3"><path class="cls-4" d="M277,211.62l-32.38,50.6h-7.09l-12.14-50.6h7.44l9.84,41.64,26.82-41.64Z" transform="translate(-198.06 -186.92)"/></g><g class="cls-5"><path class="cls-4" d="M281.74,211.62l-32.89,50.6H247.4l1-2L280,211.62Z" transform="translate(-198.06 -186.92)"/></g></svg>