<svg id="Layer_1" data-name="Layer 1" xmlns="http://www.w3.org/2000/svg" viewBox="0 0 348.43 107.88"><defs><style>.cls-1{fill:#5a5b6c;stroke:#292b3c;}.cls-1,.cls-2{stroke-miterlimit:10;}.cls-2{fill:#a0a1b7;stroke:#4b4e6d;}.cls-3{isolation:isolate;}.cls-4{fill:#4b4e6d;}.cls-5{opacity:0.4;}</style></defs><title>logo-with-brand</title><path class="cls-1" d="M184.9,296H95.82a6.9,6.9,0,0,1-6.9-6.9V200a6.9,6.9,0,0,1,6.9-6.9H184.9a6.9,6.9,0,0,1,6.9,6.9v89.08A6.9,6.9,0,0,1,184.9,296Z" transform="translate(-88.42 -188.58)"/><path class="cls-2" d="M184.9,292H95.82a6.9,6.9,0,0,1-6.9-6.9V196a6.9,6.9,0,0,1,6.9-6.9H184.9a6.9,6.9,0,0,1,6.9,6.9v89.08A6.9,6.9,0,0,1,184.9,292Z" transform="translate(-88.42 -188.58)"/><g class="cls-3"><path class="cls-4" d="M167.38,213.28,135,263.88H127.9l-12.14-50.6h7.44L133,254.92l26.82-41.64Z" transform="translate(-88.42 -188.58)"/></g><g class="cls-5"><path class="cls-4" d="M172.1,213.28l-32.89,50.6h-1.45l1-1.95,31.59-48.65Z" transform="translate(-88.42 -188.58)"/></g><path class="cls-4" d="M224.77,262.32a21,21,0,0,1-8.15-7.93,23.33,23.33,0,0,1,0-22.71,20.92,20.92,0,0,1,8.19-7.94,25.43,25.43,0,0,1,20.65-1.24,18.52,18.52,0,0,1,7,4.73l-2.92,2.92A17.38,17.38,0,0,0,236.63,225a19,19,0,0,0-9.4,2.36,17.29,17.29,0,0,0-6.62,6.47,18.87,18.87,0,0,0,0,18.42,17.15,17.15,0,0,0,6.62,6.47,18.89,18.89,0,0,0,9.4,2.37,17.14,17.14,0,0,0,12.88-5.23l2.92,2.92a18.66,18.66,0,0,1-7,4.76,24,24,0,0,1-9,1.65A23.79,23.79,0,0,1,224.77,262.32Z" transform="translate(-88.42 -188.58)"/><path class="cls-4" d="M270.16,225.24h-15.3v-4h35.21v4h-15.3v39.57h-4.61Z" transform="translate(-88.42 -188.58)"/><path class="cls-4" d="M327.16,264.81l-10-14a32.62,32.62,0,0,1-3.48.19H302v13.81h-4.6V221.26h16.3q8.34,0,13.06,4t4.73,10.95a14.19,14.19,0,0,1-2.58,8.62,14.34,14.34,0,0,1-7.37,5.07l10.64,14.93Zm-3.67-20.6a9.87,9.87,0,0,0,3.42-8c0-3.53-1.14-6.23-3.42-8.12s-5.58-2.83-9.9-2.83H302v21.84h11.57C317.91,247.08,321.2,246.12,323.49,244.21Z" transform="translate(-88.42 -188.58)"/><path class="cls-4" d="M342.4,221.26H347v39.57h24.39v4h-29Z" transform="translate(-88.42 -188.58)"/><path class="cls-4" d="M374.88,246h16.3v3.86h-16.3Z" transform="translate(-88.42 -188.58)"/><path class="cls-4" d="M436.85,221.26l-19.29,43.55H413l-19.29-43.55h5l16.67,37.82,16.8-37.82Z" transform="translate(-88.42 -188.58)"/></svg>